<svg id="visual" viewBox="0 0 900 600" width="900" height="600" xmlns="http://www.w3.org/2000/svg" xmlns:xlink="http://www.w3.org/1999/xlink" version="1.1"><path d="M0 310L21.5 321.8C43 333.7 86 357.3 128.8 360.3C171.7 363.3 214.3 345.7 257.2 332.5C300 319.3 343 310.7 385.8 323.3C428.7 336 471.3 370 514.2 380.3C557 390.7 600 377.3 642.8 366C685.7 354.7 728.3 345.3 771.2 338C814 330.7 857 325.3 878.5 322.7L900 320L900 601L878.5 601C857 601 814 601 771.2 601C728.3 601 685.7 601 642.8 601C600 601 557 601 514.2 601C471.3 601 428.7 601 385.8 601C343 601 300 601 257.2 601C214.3 601 171.7 601 128.8 601C86 601 43 601 21.5 601L0 601Z" fill="#fa7268"></path><path d="M0 382L21.5 382.2C43 382.3 86 382.7 128.8 388.5C171.7 394.3 214.3 405.7 257.2 399.8C300 394 343 371 385.8 360.7C428.7 350.3 471.3 352.7 514.2 368.8C557 385 600 415 642.8 417.7C685.7 420.3 728.3 395.7 771.2 390.5C814 385.3 857 399.7 878.5 406.8L900 414L900 601L878.5 601C857 601 814 601 771.2 601C728.3 601 685.7 601 642.8 601C600 601 557 601 514.2 601C471.3 601 428.7 601 385.8 601C343 601 300 601 257.2 601C214.3 601 171.7 601 128.8 601C86 601 43 601 21.5 601L0 601Z" fill="#fa5872"></path><path d="M0 405L21.5 412.8C43 420.7 86 436.3 128.8 438C171.7 439.7 214.3 427.3 257.2 431.3C300 435.3 343 455.7 385.8 460C428.7 464.3 471.3 452.7 514.2 440.3C557 428 600 415 642.8 406.2C685.7 397.3 728.3 392.7 771.2 397.2C814 401.7 857 415.3 878.5 422.2L900 429L900 601L878.5 601C857 601 814 601 771.2 601C728.3 601 685.7 601 642.8 601C600 601 557 601 514.2 601C471.3 601 428.7 601 385.8 601C343 601 300 601 257.2 601C214.3 601 171.7 601 128.8 601C86 601 43 601 21.5 601L0 601Z" fill="#f43e82"></path><path d="M0 491L21.5 493.3C43 495.7 86 500.3 128.8 492.3C171.7 484.3 214.3 463.7 257.2 456.7C300 449.7 343 456.3 385.8 461.3C428.7 466.3 471.3 469.7 514.2 473C557 476.3 600 479.7 642.8 474.5C685.7 469.3 728.3 455.7 771.2 456.8C814 458 857 474 878.5 482L900 490L900 601L878.5 601C857 601 814 601 771.2 601C728.3 601 685.7 601 642.8 601C600 601 557 601 514.2 601C471.3 601 428.7 601 385.8 601C343 601 300 601 257.2 601C214.3 601 171.7 601 128.8 601C86 601 43 601 21.5 601L0 601Z" fill="#e72397"></path><path d="M0 490L21.5 496.7C43 503.3 86 516.7 128.8 518.8C171.7 521 214.3 512 257.2 510C300 508 343 513 385.8 516.5C428.7 520 471.3 522 514.2 520.3C557 518.7 600 513.3 642.8 514.2C685.7 515 728.3 522 771.2 517.5C814 513 857 497 878.5 489L900 481L900 601L878.5 601C857 601 814 601 771.2 601C728.3 601 685.7 601 642.8 601C600 601 557 601 514.2 601C471.3 601 428.7 601 385.8 601C343 601 300 601 257.2 601C214.3 601 171.7 601 128.8 601C86 601 43 601 21.5 601L0 601Z" fill="#d016ae"></path><path d="M0 568L21.5 561C43 554 86 540 128.8 537C171.7 534 214.3 542 257.2 544.3C300 546.7 343 543.3 385.8 543.8C428.7 544.3 471.3 548.7 514.2 553.7C557 558.7 600 564.3 642.8 563.8C685.7 563.3 728.3 556.7 771.2 556.7C814 556.7 857 563.3 878.5 566.7L900 570L900 601L878.5 601C857 601 814 601 771.2 601C728.3 601 685.7 601 642.8 601C600 601 557 601 514.2 601C471.3 601 428.7 601 385.8 601C343 601 300 601 257.2 601C214.3 601 171.7 601 128.8 601C86 601 43 601 21.5 601L0 601Z" fill="#ac23c7"></path></svg>